HIERARCHY
ROOT Hips
{
	OFFSET 0.000000 97.167313 0.000000
	CHANNELS 6 Xposition Yposition Zposition Xrotation Yrotation Zrotation
	JOINT Spine
	{
		OFFSET 0.000000 13.784798 0.064400
		CHANNELS 3 Xrotation Yrotation Zrotation
		JOINT Spine1
		{
			OFFSET 0.000000 12.037903 0.404700
			CHANNELS 3 Xrotation Yrotation Zrotation
			JOINT Spine2
			{
				OFFSET 0.000000 17.795601 0.420200
				CHANNELS 3 Xrotation Yrotation Zrotation
				JOINT Neck
				{
					OFFSET 0.000000 39.131302 11.954600
					CHANNELS 3 Xrotation Yrotation Zrotation
					JOINT Head
					{
						OFFSET 0.000000 14.456192 15.627699
						CHANNELS 3 Xrotation Yrotation Zrotation
						JOINT HeadTop_End
						{
							OFFSET 0.000000 15.703506 7.603401
							CHANNELS 3 Xrotation Yrotation Zrotation
							End Site
							{
								OFFSET 0.000000 17.447403 0.000000
							}
						}
					}
				}
				JOINT LeftShoulder
				{
					OFFSET 17.399500 24.608795 1.168800
					CHANNELS 3 Xrotation Yrotation Zrotation
					JOINT LeftArm
					{
						OFFSET 18.980635 5.765305 1.818600
						CHANNELS 3 Xrotation Yrotation Zrotation
						JOINT LeftForeArm
						{
							OFFSET 49.290169 0.000000 0.000000
							CHANNELS 3 Xrotation Yrotation Zrotation
							JOINT LeftHand
							{
								OFFSET 31.562012 0.000000 0.000000
								CHANNELS 3 Xrotation Yrotation Zrotation
								JOINT LeftHandThumb1
								{
									OFFSET 6.133995 -4.388519 7.076070
									CHANNELS 3 Xrotation Yrotation Zrotation
									JOINT LeftHandThumb2
									{
										OFFSET 6.037666 -3.485840 3.485847
										CHANNELS 3 Xrotation Yrotation Zrotation
										JOINT LeftHandThumb3
										{
											OFFSET 6.496506 -3.750763 3.750761
											CHANNELS 3 Xrotation Yrotation Zrotation
											JOINT LeftHandThumb4
											{
												OFFSET 5.616882 -3.242905 3.242910
												CHANNELS 3 Xrotation Yrotation Zrotation
												End Site
												{
													OFFSET -1.254608 7.132141 0.375429
												}
											}
										}
									}
								}
								JOINT LeftHandPinky1
								{
									OFFSET 18.920792 -0.453171 -11.426712
									CHANNELS 3 Xrotation Yrotation Zrotation
									JOINT LeftHandPinky2
									{
										OFFSET 4.919586 0.000000 0.000000
										CHANNELS 3 Xrotation Yrotation Zrotation
										JOINT LeftHandPinky3
										{
											OFFSET 5.233047 0.000000 0.000000
											CHANNELS 3 Xrotation Yrotation Zrotation
											JOINT LeftHandPinky4
											{
												OFFSET 5.571716 0.000000 0.000000
												CHANNELS 3 Xrotation Yrotation Zrotation
												End Site
												{
													OFFSET -3.459808 4.342407 -0.466164
												}
											}
										}
									}
								}
								JOINT LeftHandRing1
								{
									OFFSET 22.726120 -0.094986 -6.500475
									CHANNELS 3 Xrotation Yrotation Zrotation
									JOINT LeftHandRing2
									{
										OFFSET 6.408615 0.000000 0.000000
										CHANNELS 3 Xrotation Yrotation Zrotation
										JOINT LeftHandRing3
										{
											OFFSET 6.150223 0.000000 0.000000
											CHANNELS 3 Xrotation Yrotation Zrotation
											JOINT LeftHandRing4
											{
												OFFSET 6.145386 0.000000 0.000000
												CHANNELS 3 Xrotation Yrotation Zrotation
												End Site
												{
													OFFSET -3.671402 4.923981 -0.202372
												}
											}
										}
									}
								}
								JOINT LeftHandMiddle1
								{
									OFFSET 23.373947 0.000000 0.000001
									CHANNELS 3 Xrotation Yrotation Zrotation
									JOINT LeftHandMiddle2
									{
										OFFSET 6.996567 0.000000 0.000000
										CHANNELS 3 Xrotation Yrotation Zrotation
										JOINT LeftHandMiddle3
										{
											OFFSET 7.015945 0.000000 0.000000
											CHANNELS 3 Xrotation Yrotation Zrotation
											JOINT LeftHandMiddle4
											{
												OFFSET 7.721573 0.000000 0.000000
												CHANNELS 3 Xrotation Yrotation Zrotation
												End Site
												{
													OFFSET -4.651108 6.158463 0.251582
												}
											}
										}
									}
								}
								JOINT LeftHandIndex1
								{
									OFFSET 21.310577 -0.490082 6.209344
									CHANNELS 3 Xrotation Yrotation Zrotation
									JOINT LeftHandIndex2
									{
										OFFSET 7.536453 0.000000 0.000000
										CHANNELS 3 Xrotation Yrotation Zrotation
										JOINT LeftHandIndex3
										{
											OFFSET 7.512344 0.000000 0.000000
											CHANNELS 3 Xrotation Yrotation Zrotation
											JOINT LeftHandIndex4
											{
												OFFSET 10.212402 0.000000 0.000001
												CHANNELS 3 Xrotation Yrotation Zrotation
												End Site
												{
													OFFSET -5.180801 8.690506 1.388433
												}
											}
										}
									}
								}
							}
						}
					}
				}
				JOINT RightShoulder
				{
					OFFSET -17.399500 24.608795 1.168800
					CHANNELS 3 Xrotation Yrotation Zrotation
					JOINT RightArm
					{
						OFFSET -18.980635 5.765305 1.818600
						CHANNELS 3 Xrotation Yrotation Zrotation
						JOINT RightForeArm
						{
							OFFSET -49.290169 0.000000 0.000000
							CHANNELS 3 Xrotation Yrotation Zrotation
							JOINT RightHand
							{
								OFFSET -31.562012 0.000000 0.000000
								CHANNELS 3 Xrotation Yrotation Zrotation
								JOINT RightHandThumb1
								{
									OFFSET -6.133995 -4.388519 7.076070
									CHANNELS 3 Xrotation Yrotation Zrotation
									JOINT RightHandThumb2
									{
										OFFSET -6.037666 -3.485840 3.485847
										CHANNELS 3 Xrotation Yrotation Zrotation
										JOINT RightHandThumb3
										{
											OFFSET -6.496506 -3.750763 3.750761
											CHANNELS 3 Xrotation Yrotation Zrotation
											JOINT RightHandThumb4
											{
												OFFSET -5.616882 -3.242905 3.242910
												CHANNELS 3 Xrotation Yrotation Zrotation
												End Site
												{
													OFFSET 1.254608 7.132141 0.375429
												}
											}
										}
									}
								}
								JOINT RightHandIndex1
								{
									OFFSET -21.310577 -0.490082 6.209344
									CHANNELS 3 Xrotation Yrotation Zrotation
									JOINT RightHandIndex2
									{
										OFFSET -7.536453 0.000000 0.000000
										CHANNELS 3 Xrotation Yrotation Zrotation
										JOINT RightHandIndex3
										{
											OFFSET -7.512344 0.000000 0.000000
											CHANNELS 3 Xrotation Yrotation Zrotation
											JOINT RightHandIndex4
											{
												OFFSET -10.212402 0.000000 0.000001
												CHANNELS 3 Xrotation Yrotation Zrotation
												End Site
												{
													OFFSET 5.180801 8.690506 1.388433
												}
											}
										}
									}
								}
								JOINT RightHandMiddle1
								{
									OFFSET -23.373947 0.000000 0.000001
									CHANNELS 3 Xrotation Yrotation Zrotation
									JOINT RightHandMiddle2
									{
										OFFSET -6.996567 0.000000 0.000000
										CHANNELS 3 Xrotation Yrotation Zrotation
										JOINT RightHandMiddle3
										{
											OFFSET -7.015945 0.000000 0.000000
											CHANNELS 3 Xrotation Yrotation Zrotation
											JOINT RightHandMiddle4
											{
												OFFSET -7.721573 0.000000 0.000000
												CHANNELS 3 Xrotation Yrotation Zrotation
												End Site
												{
													OFFSET 4.651108 6.158463 0.251582
												}
											}
										}
									}
								}
								JOINT RightHandRing1
								{
									OFFSET -22.726120 -0.094986 -6.500475
									CHANNELS 3 Xrotation Yrotation Zrotation
									JOINT RightHandRing2
									{
										OFFSET -6.408615 0.000000 0.000000
										CHANNELS 3 Xrotation Yrotation Zrotation
										JOINT RightHandRing3
										{
											OFFSET -6.150223 0.000000 0.000000
											CHANNELS 3 Xrotation Yrotation Zrotation
											JOINT RightHandRing4
											{
												OFFSET -6.145386 0.000000 0.000000
												CHANNELS 3 Xrotation Yrotation Zrotation
												End Site
												{
													OFFSET 3.671402 4.923981 -0.202372
												}
											}
										}
									}
								}
								JOINT RightHandPinky1
								{
									OFFSET -18.920792 -0.453171 -11.426712
									CHANNELS 3 Xrotation Yrotation Zrotation
									JOINT RightHandPinky2
									{
										OFFSET -4.919586 0.000000 0.000000
										CHANNELS 3 Xrotation Yrotation Zrotation
										JOINT RightHandPinky3
										{
											OFFSET -5.233047 0.000000 0.000000
											CHANNELS 3 Xrotation Yrotation Zrotation
											JOINT RightHandPinky4
											{
												OFFSET -5.571716 0.000000 0.000000
												CHANNELS 3 Xrotation Yrotation Zrotation
												End Site
												{
													OFFSET 3.459808 4.342407 -0.466164
												}
											}
										}
									}
								}
							}
						}
					}
				}
			}
		}
	}
	JOINT LeftUpLeg
	{
		OFFSET 19.899099 -7.885101 -3.429500
		CHANNELS 3 Xrotation Yrotation Zrotation
		JOINT LeftLeg
		{
			OFFSET 1.745560 -36.997807 10.304700
			CHANNELS 3 Xrotation Yrotation Zrotation
			JOINT LeftFoot
			{
				OFFSET -1.745558 -29.803308 -13.615400
				CHANNELS 3 Xrotation Yrotation Zrotation
				JOINT LeftToeBase
				{
					OFFSET 1.181900 -18.539904 15.226099
					CHANNELS 3 Xrotation Yrotation Zrotation
					JOINT LeftToe_End
					{
						OFFSET -0.863701 1.402801 16.534700
						CHANNELS 3 Xrotation Yrotation Zrotation
						End Site
						{
							OFFSET 0.000000 16.616566 0.000000
						}
					}
				}
			}
		}
	}
	JOINT RightUpLeg
	{
		OFFSET -19.899099 -7.885101 -3.429500
		CHANNELS 3 Xrotation Yrotation Zrotation
		JOINT RightLeg
		{
			OFFSET -1.745560 -36.997807 10.304700
			CHANNELS 3 Xrotation Yrotation Zrotation
			JOINT RightFoot
			{
				OFFSET 1.745558 -29.803308 -13.615400
				CHANNELS 3 Xrotation Yrotation Zrotation
				JOINT RightToeBase
				{
					OFFSET -1.181900 -18.539904 15.226099
					CHANNELS 3 Xrotation Yrotation Zrotation
					JOINT RightToe_End
					{
						OFFSET 0.863701 1.402801 16.534700
						CHANNELS 3 Xrotation Yrotation Zrotation
						End Site
						{
							OFFSET 0.000000 16.616566 0.000000
						}
					}
				}
			}
		}
	}
}
MOTION
Frames: 4
Frame Time: 0.033333
-0.038553 88.014687 240.887299 181.819704 53.057821 -180.611703 4.347757 4.110159 1.469064 2.524731 1.715563 1.110259 2.492602 1.744194 1.154503 3.755347 5.641873 -2.325641 0.503632 28.307535 -6.713017 -0.000000 0.000000 -0.000000 0.663331 -1.148304 -12.619993 12.229753 -19.840977 -43.168291 -0.000014 -56.762540 -0.000016 1.787778 -3.403560 12.710009 -13.989881 -7.448985 14.168431 6.802060 16.427539 1.869313 -5.747942 14.329438 16.651730 0.000005 0.000003 -0.000001 6.462693 33.538882 -42.218215 0.416388 2.171014 -21.711407 0.040985 0.692426 -6.773026 0.000002 -0.000001 0.000001 7.333063 16.544190 -29.511212 0.451002 2.255952 -22.607696 0.040528 0.688566 -6.735018 0.000000 -0.000000 0.000002 0.762379 5.139647 -30.251488 0.366329 2.040893 -20.349060 0.041448 0.696362 -6.811714 -0.000000 0.000002 0.000004 1.872374 -6.835727 -31.447089 0.365633 2.039043 -20.329746 0.041318 0.695327 -6.801641 -0.000000 -0.000000 0.000001 0.589714 25.178430 9.898162 16.707537 11.696585 43.001628 -0.000406 93.364492 0.000420 -12.754735 14.154687 -6.796922 -5.530759 10.448128 -3.619176 9.410870 -11.361657 -2.963039 -4.411110 5.952550 -13.905959 -0.000000 -0.000001 0.000001 -2.306822 4.196125 21.066940 0.226689 -1.436728 17.931712 0.226657 -1.436629 17.930466 -0.000000 0.000001 -0.000003 0.380990 -4.037151 25.757028 0.380974 -1.846538 23.313174 0.380981 -1.846609 23.313956 -0.000001 0.000000 -0.000004 4.701791 -11.047402 31.815158 0.602859 -2.293580 29.449986 0.601979 -2.292044 29.428106 0.000000 0.000004 -0.000007 9.021246 -17.612932 36.505746 0.779880 -2.581847 33.609797 0.780579 -2.582931 33.625810 0.000003 0.000001 0.000002 -29.363434 6.029366 6.207436 23.505755 2.022133 -0.360251 6.769078 0.652154 -2.536268 0.555353 -0.000009 -0.000002 -0.000000 0.000000 -0.000000 -5.021459 -9.484928 -18.648445 43.202869 -7.981392 0.225040 -6.381518 -8.975941 3.479097 -6.570834 -3.031502 18.743106 -0.000001 0.000000 0.000001 
1.438471 88.866867 245.274185 183.601810 52.331680 -182.222822 4.608388 3.284202 2.183510 2.641588 1.326703 1.376101 2.616057 1.346637 1.413571 3.802806 5.683171 -2.466010 0.873792 28.337111 -7.220686 -0.000000 -0.000000 -0.000000 0.661708 -1.867525 -13.231895 13.895283 -22.468418 -42.711618 0.000043 -59.513487 0.000036 2.972296 -2.384334 11.717340 -13.837874 -7.395357 14.244675 6.889447 16.533168 1.916680 -5.893033 13.838731 16.504881 0.000003 0.000002 -0.000002 7.042014 33.321027 -43.430147 0.442717 2.236017 -22.396732 0.050313 0.766982 -7.506430 0.000000 -0.000000 -0.000000 7.518163 16.346873 -30.677528 0.477584 2.318735 -23.274027 0.049551 0.761192 -7.449469 -0.000000 0.000000 0.000003 0.798274 5.207927 -31.373084 0.391262 2.106845 -21.038064 0.050805 0.770657 -7.542609 0.000001 -0.000002 0.000004 1.659372 -6.758082 -32.549062 0.390362 2.104565 -21.014213 0.050680 0.769772 -7.533802 -0.000001 0.000002 -0.000003 0.762356 25.259593 9.003181 17.469109 11.473018 42.039876 -0.000617 93.729880 0.000670 -13.179142 14.430021 -7.209930 -5.480804 10.286658 -3.682524 9.429319 -11.536958 -2.979750 -4.435460 6.115491 -13.865711 -0.000000 0.000000 0.000002 -2.311939 4.017109 21.744001 0.244395 -1.490250 18.624374 0.244343 -1.490180 18.623108 -0.000002 -0.000003 -0.000001 0.402580 -4.089385 26.450755 0.403607 -1.898186 24.006136 0.403638 -1.898243 24.006887 0.000002 -0.000000 -0.000001 4.770255 -10.986419 32.519197 0.631019 -2.342723 30.146170 0.629987 -2.340952 30.121035 0.000002 -0.000001 0.000002 9.037782 -17.450683 37.198095 0.811390 -2.628617 34.303413 0.812130 -2.629696 34.319457 0.000000 -0.000003 0.000007 -27.710837 5.939428 9.682274 18.317697 -0.186865 -0.739031 11.112626 0.591786 -5.374776 0.370479 -0.000015 0.000001 0.000000 0.000002 0.000000 -2.834469 -8.573704 -20.941503 32.909248 -8.334560 0.025348 -7.797212 -6.857685 0.590402 -4.719531 -1.512149 13.340081 -0.000000 0.000001 -0.000001 
2.795697 89.246529 249.902191 184.864684 51.702080 -183.402177 4.751524 2.568178 2.614185 2.717155 0.989024 1.528021 2.698165 0.998502 1.559791 3.779854 5.713873 -2.470347 0.969669 28.371644 -7.354537 -0.000000 0.000001 -0.000000 0.663950 -2.398961 -14.304705 15.543514 -24.261151 -40.797762 0.000028 -62.601962 0.000009 3.028522 -1.527413 11.076247 -13.672597 -7.336833 14.327215 6.984583 16.648253 1.967826 -6.051461 13.305670 16.343021 0.000000 -0.000000 0.000000 7.659972 33.073425 -44.741202 0.472273 2.306351 -23.142226 0.061553 0.847948 -8.304218 0.000001 0.000000 -0.000002 7.710761 16.130487 -31.943955 0.507351 2.386663 -23.998850 0.060417 0.840063 -8.226565 -0.000004 -0.000002 0.000001 0.838104 5.281844 -32.593171 0.419289 2.178249 -21.787614 0.062035 0.851334 -8.337618 -0.000000 -0.000002 -0.000001 1.429446 -6.668212 -33.747101 0.418190 2.175487 -21.758758 0.061931 0.850590 -8.330211 -0.000004 0.000003 0.000001 0.917647 25.184980 8.193819 17.292364 11.232367 41.429100 -0.000492 93.819533 0.000536 -13.704984 14.771052 -7.373011 -5.426788 10.110920 -3.751235 9.449344 -11.727632 -2.997878 -4.462082 6.292669 -13.821799 0.000001 -0.000001 0.000003 -2.313822 3.823326 22.480492 0.264352 -1.548260 19.377803 0.264334 -1.548160 19.376555 -0.000000 -0.000001 -0.000001 0.426796 -4.145896 27.205402 0.428939 -1.954053 24.759907 0.428963 -1.954113 24.760655 -0.000000 0.000001 -0.000008 4.842992 -10.919686 33.284680 0.662330 -2.395771 30.903478 0.661137 -2.393768 30.874805 0.000001 0.000001 -0.000003 9.051967 -17.276320 37.950782 0.846329 -2.679048 35.057947 0.847069 -2.680108 35.073981 -0.000000 -0.000001 0.000004 -26.608952 6.143082 13.299609 13.221289 -1.831723 -1.108636 15.036757 0.336725 -8.402540 -0.713937 -0.000006 0.000001 -0.000000 -0.000000 0.000000 -1.785046 -8.573312 -22.823413 24.814192 -6.833199 0.232867 -9.801238 -2.424219 3.299922 -6.061740 -0.000087 0.101815 -0.000000 0.000000 -0.000000 
3.767260 87.801888 255.295776 185.634460 50.838635 -184.515634 4.843294 1.961205 3.170283 2.762908 0.700138 1.636982 2.748050 0.709692 1.661726 3.560974 5.666311 -2.294012 0.687647 28.194693 -7.164074 0.000000 -0.000001 -0.000000 0.649367 -2.947980 -15.270025 16.903093 -26.108818 -38.017458 0.000082 -64.767651 0.000065 2.656408 -1.553212 11.316270 -13.494879 -7.273614 14.415556 7.087058 16.772199 2.022420 -6.222590 12.732999 16.166409 0.000001 0.000001 0.000000 8.310354 32.795017 -46.143088 0.505077 2.381564 -23.944300 0.074911 0.934869 -9.162499 -0.000001 0.000001 -0.000004 7.907864 15.895950 -33.303900 0.540318 2.459319 -24.778700 0.073290 0.924753 -9.062632 -0.000003 0.000000 0.000003 0.881923 5.360934 -33.905885 0.450451 2.254656 -22.594039 0.075418 0.937936 -9.192928 0.000001 -0.000001 0.000004 1.184342 -6.565314 -35.035223 0.449118 2.251421 -22.559818 0.075317 0.937330 -9.187035 -0.000000 0.000003 0.000002 0.938469 24.815590 8.050540 16.580323 10.366243 41.051783 -0.000706 93.763717 0.000789 -14.686969 14.957894 -7.312669 -5.368909 9.921782 -3.824848 9.470835 -11.932761 -3.017297 -4.490915 6.483315 -13.774483 0.000001 -0.000002 -0.000003 -2.311582 3.615978 23.272932 0.286712 -1.610363 20.188398 0.286649 -1.610252 20.187128 0.000000 -0.000002 0.000003 0.453650 -4.206347 28.017298 0.457042 -2.013757 25.570876 0.457049 -2.013826 25.571591 0.000000 0.000000 -0.000008 4.919273 -10.847477 34.107875 0.696791 -2.452383 31.718234 0.695413 -2.450121 31.685780 -0.000000 -0.000002 0.000002 9.062869 -17.091254 38.760156 0.884659 -2.732795 35.869729 0.885407 -2.733850 35.885770 0.000001 -0.000000 0.000002 -29.084667 5.612220 17.909571 13.511887 -3.211398 -1.344041 15.222661 0.324046 -11.710966 -3.296858 -0.000011 -0.000005 -0.000000 -0.000001 0.000000 -2.971725 -9.520031 -22.422271 24.885424 -0.003386 0.809719 -14.716817 -2.789106 8.507328 -4.034189 -0.000008 0.000004 0.000000 -0.000001 0.000000 
